<?xml version="1.0" encoding="UTF-8" standalone="no"?>
<svg
   viewBox="0 0 24 24"
   version="1.1"
   id="svg1"
   sodipodi:docname="hospital.svg"
   inkscape:version="1.3 (0e150ed6c4, 2023-07-21)"
   xmlns:inkscape="http://www.inkscape.org/namespaces/inkscape"
   xmlns:sodipodi="http://sodipodi.sourceforge.net/DTD/sodipodi-0.dtd"
   xmlns="http://www.w3.org/2000/svg"
   xmlns:svg="http://www.w3.org/2000/svg">
  <defs
     id="defs1" />
  <sodipodi:namedview
     id="namedview1"
     pagecolor="#ffffff"
     bordercolor="#666666"
     borderopacity="1.0"
     inkscape:showpageshadow="2"
     inkscape:pageopacity="0.0"
     inkscape:pagecheckerboard="0"
     inkscape:deskcolor="#d1d1d1"
     showgrid="false"
     inkscape:zoom="45.254834"
     inkscape:cx="15.655786"
     inkscape:cy="12.451708"
     inkscape:window-width="1920"
     inkscape:window-height="1011"
     inkscape:window-x="0"
     inkscape:window-y="0"
     inkscape:window-maximized="1"
     inkscape:current-layer="svg1" />
  <path
     id="path2"
     d="m 10,6 c 0,1.3333333 0,2.6666667 0,4 -1.3333333,0 -2.6666667,0 -4,0 0,1.333333 0,2.666667 0,4 1.3333333,0 2.6666667,0 4,0 0,1.333333 0,2.666667 0,4 1.333333,0 2.666667,0 4,0 0,-1.333333 0,-2.666667 0,-4 1.333333,0 2.666667,0 4,0 0,-1.333333 0,-2.666667 0,-4 -1.333333,0 -2.666667,0 -4,0 0,-1.3333333 0,-2.6666667 0,-4 -1.333333,0 -2.666667,0 -4,0 z" />
</svg>
